<?xml version="1.0" standalone="no"?>
<!DOCTYPE svg PUBLIC "-//W3C//DTD SVG 20010904//EN"
 "http://www.w3.org/TR/2001/REC-SVG-20010904/DTD/svg10.dtd">
<svg version="1.0" xmlns="http://www.w3.org/2000/svg"
 width="231.000000pt" height="140.000000pt" viewBox="0 0 231.000000 140.000000"
 preserveAspectRatio="xMidYMid meet">

<g transform="translate(0.000000,140.000000) scale(0.100000,-0.100000)"
fill="#000000" stroke="none">
<path d="M692 1350 c8 -14 25 -42 37 -63 l24 -39 -44 -44 -43 -44 43 -143 43
-144 46 -22 46 -22 148 17 c81 10 153 21 160 25 11 7 47 324 37 333 -2 3 -76
14 -164 26 -88 12 -165 24 -172 26 -10 2 -9 13 2 45 21 58 11 61 -17 5 -12
-25 -29 -46 -37 -46 -8 0 -39 26 -69 58 -31 31 -49 46 -40 32z m317 -155 c79
-8 146 -17 149 -20 3 -3 0 -49 -7 -103 -22 -166 -6 -148 -135 -161 -179 -18
-157 -31 -185 117 -13 70 -26 139 -28 155 -5 25 -3 27 28 27 19 0 99 -7 178
-15z"/>
<path d="M1016 1098 l-14 -33 -1 28 c-1 20 -6 27 -20 27 -15 0 -24 -15 -40
-62 -25 -72 -26 -88 -7 -88 7 0 18 15 24 33 l10 32 1 -32 c1 -18 5 -33 11 -33
5 0 16 15 24 33 l14 32 1 -32 c1 -24 5 -31 15 -27 9 4 17 27 21 62 4 32 9 65
11 75 4 12 0 17 -15 17 -14 0 -26 -11 -35 -32z"/>
<path d="M680 789 c-132 -21 -112 -1 -178 -172 -33 -84 -67 -173 -77 -199 -18
-49 -40 -67 -30 -25 10 47 55 370 52 374 -6 5 -211 -18 -218 -25 -3 -4 -20
-61 -39 -127 -18 -66 -68 -229 -110 -362 l-77 -243 36 0 c20 0 59 3 87 6 l50
6 48 172 c26 94 50 179 52 189 21 73 16 -79 -10 -326 l-5 -48 62 3 62 3 67
185 c37 102 70 190 73 195 6 11 4 -14 -21 -228 -9 -81 -15 -149 -13 -151 2 -2
45 4 94 13 l90 16 3 40 c11 172 59 596 78 688 6 30 9 29 -76 16z"/>
<path d="M1406 777 l-79 -10 -70 -109 c-38 -59 -72 -106 -74 -104 -3 3 3 48
12 101 10 53 15 99 11 102 -3 3 -41 8 -84 11 l-78 4 -22 -158 c-13 -88 -43
-260 -67 -383 -25 -124 -43 -226 -42 -227 4 -5 155 21 161 27 3 3 18 64 32
135 22 114 37 157 47 143 2 -2 11 -62 21 -134 10 -72 20 -133 23 -137 2 -5 49
-8 104 -8 84 0 99 -2 99 -16 0 -12 6 -15 23 -11 12 3 87 15 167 27 80 12 146
23 147 24 0 0 4 28 8 60 l8 59 -44 -7 c-24 -3 -59 -9 -77 -13 l-34 -6 7 48 c4
25 13 70 19 98 l11 52 73 3 c67 3 72 5 72 25 0 12 3 38 6 58 l6 36 -72 -5 -73
-5 6 32 c4 17 12 60 19 96 l11 65 78 0 77 0 8 33 c8 31 9 30 15 -23 4 -30 10
-140 14 -245 6 -173 5 -198 -14 -282 -12 -51 -21 -98 -21 -104 0 -8 18 -9 58
-5 129 15 117 6 143 114 17 76 48 150 141 341 65 134 116 247 113 251 -2 4
-32 13 -66 19 -33 7 -67 15 -74 17 -8 3 -30 -44 -66 -148 l-54 -153 -3 158
c-1 86 -4 157 -6 157 -1 0 -29 -11 -62 -24 -108 -43 -108 -43 -100 -6 l6 33
-62 -6 c-35 -4 -105 -9 -156 -13 -50 -4 -98 -12 -106 -18 -8 -7 -36 -139 -71
-331 -32 -176 -61 -329 -65 -339 -7 -21 -60 134 -101 292 l-19 74 52 76 c28
42 79 115 113 162 34 47 65 91 69 98 8 14 -2 14 -118 -1z"/>
<path d="M925 759 c-100 -18 -91 -9 -110 -116 -9 -54 -40 -208 -67 -343 -28
-135 -53 -256 -55 -271 l-5 -25 83 11 83 10 68 350 c37 193 70 360 73 373 6
24 6 24 -70 11z"/>
</g>
</svg>
